<svg xmlns="http://www.w3.org/2000/svg" viewBox="0 0 1440 900" width="1440" height="900" role="img" aria-label="AdFlow / Mobius cover">
  <defs>
    <filter id="adfgrain" x="0" y="0" width="100%" height="100%">
      <feTurbulence type="fractalNoise" baseFrequency="0.9" numOctaves="2" seed="51"/>
      <feColorMatrix type="matrix" values="0 0 0 0 0  0 0 0 0 0  0 0 0 0 0  0 0 0 0.18 0"/>
      <feComposite in2="SourceGraphic" operator="in"/>
    </filter>
    <linearGradient id="adfbg" x1="0" y1="0" x2="1" y2="1">
      <stop offset="0" stop-color="#0a0a0a"/>
      <stop offset="1" stop-color="#1a0a20"/>
    </linearGradient>
  </defs>
  <rect width="1440" height="900" fill="url(#adfbg)"/>
  <g transform="translate(1150 200)" opacity="0.6">
    <path d="M0 180 C 0 60, 160 60, 160 180 C 160 300, 320 300, 320 180" stroke="#ec4899" stroke-width="2" fill="none"/>
    <path d="M-40 180 C -40 40, 200 40, 200 180 C 200 320, 440 320, 440 180" stroke="#ec4899" stroke-width="2" fill="none" opacity="0.5"/>
  </g>
  <g transform="translate(90 130)">
    <text x="0" y="0" font-family="ui-monospace, monospace" font-size="20" fill="#ec4899" letter-spacing="8">SOFT LAUNCH // IA ADS</text>
    <text x="0" y="220" font-family="Georgia, serif" font-weight="700" font-size="220" fill="#fafafa" letter-spacing="-10">AdFlow</text>
    <text x="0" y="300" font-family="Georgia, serif" font-size="36" fill="#f9a8d4" letter-spacing="4" font-style="italic">Mobius</text>
    <text x="0" y="440" font-family="Georgia, serif" font-size="34" fill="#d4d4d4">IA que cria, publica e otimiza</text>
    <text x="0" y="484" font-family="Georgia, serif" font-size="34" fill="#d4d4d4" font-style="italic">anuncios sozinha. Bids em tempo real.</text>
  </g>
  <g transform="translate(90 600)">
    <rect x="0" y="0" width="440" height="160" rx="14" fill="#1a0a20" stroke="#ec4899" stroke-width="2"/>
    <text x="28" y="44" font-family="ui-monospace, monospace" font-size="14" fill="#ec4899" letter-spacing="3">CPA_7d</text>
    <text x="28" y="108" font-family="Georgia, serif" font-weight="700" font-size="56" fill="#fafafa">R$ 3.12</text>
    <g transform="translate(28 130)">
      <rect x="0" y="0" width="12" height="12" fill="#22c55e"/>
      <text x="20" y="10" font-family="ui-monospace, monospace" font-size="14" fill="#22c55e">-28% vs manual</text>
    </g>
  </g>
  <rect width="1440" height="900" fill="#ffffff" filter="url(#adfgrain)" opacity="0.04"/>
</svg>
