<svg xmlns="http://www.w3.org/2000/svg" viewBox="0 0 1600 1000" width="1600" height="1000" role="img" aria-label="Aegis Yield cover">
  <defs>
    <filter id="aygrain">
      <feTurbulence type="fractalNoise" baseFrequency="0.9" numOctaves="2" seed="83"/>
      <feColorMatrix type="matrix" values="0 0 0 0 0  0 0 0 0 0  0 0 0 0 0  0 0 0 0.18 0"/>
      <feComposite in2="SourceGraphic" operator="in"/>
    </filter>
    <linearGradient id="aybg" x1="0" y1="0" x2="1" y2="1">
      <stop offset="0" stop-color="#0a0e1a"/>
      <stop offset="1" stop-color="#050505"/>
    </linearGradient>
  </defs>
  <rect width="1600" height="1000" fill="url(#aybg)"/>
  <g transform="translate(1270 350)" opacity="0.95">
    <path d="M 0 -260 L 230 -130 L 230 130 Q 230 220, 0 290 Q -230 220, -230 130 L -230 -130 Z" fill="none" stroke="#38bdf8" stroke-width="3"/>
    <path d="M 0 -200 L 176 -100 L 176 100 Q 176 168, 0 220 Q -176 168, -176 100 L -176 -100 Z" fill="#0b1a2a" stroke="#38bdf8" stroke-width="2" opacity="0.6"/>
    <g transform="translate(0 -40)" opacity="0.95">
      <text x="0" y="0" font-family="Georgia, serif" font-weight="700" font-size="54" fill="#fafafa" text-anchor="middle">AA</text>
      <text x="0" y="40" font-family="ui-monospace, monospace" font-size="14" fill="#7dd3fc" text-anchor="middle" letter-spacing="4">RISK SCORE</text>
    </g>
  </g>
  <g transform="translate(110 150)">
    <text x="0" y="0" font-family="ui-monospace, monospace" font-size="22" fill="#38bdf8" letter-spacing="10">STABLECOIN YIELD // RISCO REAL</text>
    <text x="0" y="230" font-family="Georgia, serif" font-weight="700" font-size="220" fill="#fafafa" letter-spacing="-10">Aegis</text>
    <text x="0" y="430" font-family="Georgia, serif" font-weight="700" font-size="220" fill="#38bdf8" letter-spacing="-10" font-style="italic">Yield.</text>
    <text x="0" y="560" font-family="Georgia, serif" font-size="38" fill="#d4d4d4">Compara rendimentos DeFi e</text>
    <text x="0" y="608" font-family="Georgia, serif" font-size="38" fill="#d4d4d4" font-style="italic">classifica por seguranca real.</text>
  </g>
  <g transform="translate(110 720)" opacity="0.92">
    <rect x="0" y="0" width="500" height="100" rx="14" fill="#0a121e" stroke="#38bdf8" stroke-width="2"/>
    <text x="20" y="40" font-family="ui-monospace, monospace" font-size="14" fill="#38bdf8" letter-spacing="3">TOP_APY // USDC . ETHENA</text>
    <text x="20" y="80" font-family="Georgia, serif" font-weight="700" font-size="38" fill="#fafafa">14.8% AA+</text>
  </g>
  <g transform="translate(110 870)" opacity="0.9">
    <rect x="0" y="0" width="14" height="14" fill="#38bdf8"/>
    <text x="30" y="14" font-family="ui-monospace, monospace" font-size="18" fill="#a3a3a3" letter-spacing="4">AEGIS-YIELD.APP</text>
  </g>
  <rect width="1600" height="1000" fill="#ffffff" filter="url(#aygrain)" opacity="0.04"/>
</svg>
