<svg xmlns="http://www.w3.org/2000/svg" viewBox="0 0 1600 1000" width="1600" height="1000" role="img" aria-label="AutoBlogger cover">
  <defs>
    <filter id="abgrain">
      <feTurbulence type="fractalNoise" baseFrequency="1" numOctaves="2" seed="43"/>
      <feColorMatrix type="matrix" values="0 0 0 0 0  0 0 0 0 0  0 0 0 0 0  0 0 0 0.22 0"/>
      <feComposite in2="SourceGraphic" operator="in"/>
    </filter>
  </defs>
  <rect width="1600" height="1000" fill="#fafaf5"/>
  <g opacity="0.12" fill="#0a0a0a">
    <g>
      <circle cx="80" cy="80" r="2"/><circle cx="140" cy="80" r="2"/><circle cx="200" cy="80" r="2"/><circle cx="260" cy="80" r="2"/><circle cx="320" cy="80" r="2"/>
      <circle cx="80" cy="140" r="2"/><circle cx="140" cy="140" r="2"/><circle cx="200" cy="140" r="2"/><circle cx="260" cy="140" r="2"/><circle cx="320" cy="140" r="2"/>
      <circle cx="80" cy="200" r="2"/><circle cx="140" cy="200" r="2"/><circle cx="200" cy="200" r="2"/><circle cx="260" cy="200" r="2"/><circle cx="320" cy="200" r="2"/>
      <circle cx="80" cy="260" r="2"/><circle cx="140" cy="260" r="2"/><circle cx="200" cy="260" r="2"/>
    </g>
    <g transform="translate(1200 640)">
      <circle cx="0" cy="0" r="2"/><circle cx="60" cy="0" r="2"/><circle cx="120" cy="0" r="2"/><circle cx="180" cy="0" r="2"/><circle cx="240" cy="0" r="2"/><circle cx="300" cy="0" r="2"/>
      <circle cx="0" cy="60" r="2"/><circle cx="60" cy="60" r="2"/><circle cx="120" cy="60" r="2"/><circle cx="180" cy="60" r="2"/><circle cx="240" cy="60" r="2"/><circle cx="300" cy="60" r="2"/>
      <circle cx="0" cy="120" r="2"/><circle cx="60" cy="120" r="2"/><circle cx="120" cy="120" r="2"/><circle cx="180" cy="120" r="2"/><circle cx="240" cy="120" r="2"/><circle cx="300" cy="120" r="2"/>
      <circle cx="0" cy="180" r="2"/><circle cx="60" cy="180" r="2"/><circle cx="120" cy="180" r="2"/>
    </g>
  </g>
  <g opacity="0.1" stroke="#0a0a0a" stroke-width="1">
    <line x1="0" y1="250" x2="1600" y2="250"/>
    <line x1="0" y1="500" x2="1600" y2="500"/>
    <line x1="0" y1="750" x2="1600" y2="750"/>
  </g>
  <g transform="translate(110 160)">
    <text x="0" y="0" font-family="ui-monospace, monospace" font-size="22" fill="#0a0a0a" letter-spacing="10">BLOG ENGINE // IA</text>
    <text x="0" y="260" font-family="Georgia, serif" font-weight="900" font-size="260" fill="#0a0a0a" letter-spacing="-12">Auto</text>
    <text x="0" y="460" font-family="Georgia, serif" font-weight="900" font-size="260" fill="#f97316" letter-spacing="-12" font-style="italic">Blogger.</text>
    <text x="0" y="590" font-family="Georgia, serif" font-size="38" fill="#171717">Artigos em escala. SEO validado.</text>
    <text x="0" y="638" font-family="Georgia, serif" font-size="38" fill="#171717" font-style="italic">Gera, agenda e publica sozinho.</text>
  </g>
  <g transform="translate(110 870)" opacity="0.9">
    <rect x="0" y="0" width="14" height="14" fill="#f97316"/>
    <text x="30" y="14" font-family="ui-monospace, monospace" font-size="18" fill="#737373" letter-spacing="4">GEMINI 2.5 FLASH // AUTOBLOGGER-ROSY.VERCEL.APP</text>
  </g>
  <rect width="1600" height="1000" fill="#0a0a0a" filter="url(#abgrain)" opacity="0.05"/>
</svg>
