<svg xmlns="http://www.w3.org/2000/svg" viewBox="0 0 1600 1000" width="1600" height="1000" role="img" aria-label="DeFi Radar cover">
  <defs>
    <filter id="drgrain">
      <feTurbulence type="fractalNoise" baseFrequency="0.9" numOctaves="2" seed="67"/>
      <feColorMatrix type="matrix" values="0 0 0 0 0  0 0 0 0 0  0 0 0 0 0  0 0 0 0.18 0"/>
      <feComposite in2="SourceGraphic" operator="in"/>
    </filter>
    <radialGradient id="drbg" cx="0.75" cy="0.35">
      <stop offset="0" stop-color="#001811"/>
      <stop offset="1" stop-color="#060606"/>
    </radialGradient>
  </defs>
  <rect width="1600" height="1000" fill="url(#drbg)"/>
  <g transform="translate(1210 360)" opacity="0.55">
    <circle cx="0" cy="0" r="320" fill="none" stroke="#14b8a6" stroke-width="1.5"/>
    <circle cx="0" cy="0" r="220" fill="none" stroke="#14b8a6" stroke-width="1.5"/>
    <circle cx="0" cy="0" r="120" fill="none" stroke="#14b8a6" stroke-width="1.5"/>
    <line x1="-320" y1="0" x2="320" y2="0" stroke="#14b8a6" stroke-width="1"/>
    <line x1="0" y1="-320" x2="0" y2="320" stroke="#14b8a6" stroke-width="1"/>
    <g>
      <circle cx="150" cy="-180" r="8" fill="#14b8a6"/>
      <circle cx="-220" cy="80" r="8" fill="#14b8a6"/>
      <circle cx="60" cy="240" r="8" fill="#14b8a6"/>
      <circle cx="-80" cy="-80" r="6" fill="#2dd4bf"/>
    </g>
    <path d="M 0 -320 A 320 320 0 0 1 226 226 L 0 0 Z" fill="#14b8a6" opacity="0.15"/>
  </g>
  <g transform="translate(110 150)">
    <text x="0" y="0" font-family="ui-monospace, monospace" font-size="22" fill="#2dd4bf" letter-spacing="10">DEFI // LIVE DATA</text>
    <text x="0" y="230" font-family="Georgia, serif" font-weight="700" font-size="220" fill="#fafafa" letter-spacing="-10">DeFi</text>
    <text x="0" y="430" font-family="Georgia, serif" font-weight="700" font-size="220" fill="#2dd4bf" letter-spacing="-10" font-style="italic">Radar.</text>
    <text x="0" y="560" font-family="Georgia, serif" font-size="38" fill="#d4d4d4">Precos, gas, baleias e alertas em</text>
    <text x="0" y="608" font-family="Georgia, serif" font-size="38" fill="#d4d4d4" font-style="italic">tempo real. Tudo num dashboard.</text>
  </g>
  <g transform="translate(110 720)" opacity="0.92">
    <rect x="0" y="0" width="240" height="100" rx="14" fill="#061615" stroke="#14b8a6" stroke-width="2"/>
    <text x="20" y="40" font-family="ui-monospace, monospace" font-size="14" fill="#2dd4bf" letter-spacing="3">ETH_GAS</text>
    <text x="20" y="80" font-family="Georgia, serif" font-weight="700" font-size="38" fill="#fafafa">18 gwei</text>
    <rect x="260" y="0" width="240" height="100" rx="14" fill="#061615" stroke="#14b8a6" stroke-width="2"/>
    <text x="280" y="40" font-family="ui-monospace, monospace" font-size="14" fill="#2dd4bf" letter-spacing="3">TVL_24H</text>
    <text x="280" y="80" font-family="Georgia, serif" font-weight="700" font-size="38" fill="#fafafa">+ 4.1%</text>
  </g>
  <g transform="translate(110 870)" opacity="0.9">
    <rect x="0" y="0" width="14" height="14" fill="#14b8a6"/>
    <text x="30" y="14" font-family="ui-monospace, monospace" font-size="18" fill="#a3a3a3" letter-spacing="4">DEFI-RADAR-ETA.VERCEL.APP</text>
  </g>
  <rect width="1600" height="1000" fill="#ffffff" filter="url(#drgrain)" opacity="0.04"/>
</svg>
