<svg xmlns="http://www.w3.org/2000/svg" viewBox="0 0 1440 900" width="1440" height="900" role="img" aria-label="Folio cover">
  <defs>
    <filter id="fgrain" x="0" y="0" width="100%" height="100%">
      <feTurbulence type="fractalNoise" baseFrequency="0.9" numOctaves="2" seed="23"/>
      <feColorMatrix type="matrix" values="0 0 0 0 0  0 0 0 0 0  0 0 0 0 0  0 0 0 0.15 0"/>
      <feComposite in2="SourceGraphic" operator="in"/>
    </filter>
    <linearGradient id="fbg" x1="0" y1="0" x2="0" y2="1">
      <stop offset="0" stop-color="#070712"/>
      <stop offset="1" stop-color="#0a0a18"/>
    </linearGradient>
  </defs>
  <rect width="1440" height="900" fill="url(#fbg)"/>
  <g opacity="0.18" stroke="#6366f1" stroke-width="1">
    <path d="M0 700 L120 640 L240 660 L360 580 L480 610 L600 540 L720 500 L840 520 L960 440 L1080 420 L1200 380 L1320 340 L1440 300" fill="none"/>
    <path d="M0 740 L120 700 L240 720 L360 660 L480 680 L600 620 L720 600 L840 640 L960 560 L1080 540 L1200 520 L1320 500 L1440 460" fill="none" opacity="0.5"/>
  </g>
  <g transform="translate(90 130)">
    <text x="0" y="0" font-family="ui-monospace, monospace" font-size="20" fill="#818cf8" letter-spacing="8">SOFT LAUNCH // WALLET TRACKER</text>
    <text x="0" y="230" font-family="Georgia, serif" font-weight="700" font-size="280" fill="#fafafa" letter-spacing="-10">Folio.</text>
    <text x="0" y="360" font-family="Georgia, serif" font-size="34" fill="#a5b4fc">Portfolio multi-chain + PnL real.</text>
    <text x="0" y="404" font-family="Georgia, serif" font-size="34" fill="#a5b4fc" font-style="italic">Tudo consolidado num lugar so.</text>
  </g>
  <g transform="translate(90 540)" opacity="0.92">
    <rect x="0" y="0" width="520" height="220" rx="14" fill="#0f0f22" stroke="#6366f1" stroke-width="2"/>
    <text x="28" y="48" font-family="ui-monospace, monospace" font-size="13" fill="#818cf8" letter-spacing="3">TOTAL_BALANCE</text>
    <text x="28" y="118" font-family="Georgia, serif" font-weight="700" font-size="62" fill="#fafafa">$ 48.290</text>
    <g transform="translate(28 146)">
      <rect x="0" y="0" width="14" height="14" fill="#22c55e"/>
      <text x="22" y="12" font-family="ui-monospace, monospace" font-size="14" fill="#22c55e">+ 12.4% / 7d</text>
    </g>
    <g transform="translate(28 180)" opacity="0.75">
      <text x="0" y="0" font-family="ui-monospace, monospace" font-size="12" fill="#737373">ETH .  SOL .  BASE .  ARB .  OP</text>
    </g>
  </g>
  <rect width="1440" height="900" fill="#ffffff" filter="url(#fgrain)" opacity="0.04"/>
</svg>
