<svg xmlns="http://www.w3.org/2000/svg" viewBox="0 0 1600 1000" width="1600" height="1000" role="img" aria-label="Kaleidos Digital cover">
  <defs>
    <filter id="kgrain">
      <feTurbulence type="fractalNoise" baseFrequency="0.9" numOctaves="2" seed="7"/>
      <feColorMatrix type="matrix" values="0 0 0 0 0  0 0 0 0 0  0 0 0 0 0  0 0 0 0.18 0"/>
      <feComposite in2="SourceGraphic" operator="in"/>
    </filter>
    <linearGradient id="kbg" x1="0" y1="0" x2="1" y2="1">
      <stop offset="0" stop-color="#0a0a0a"/>
      <stop offset="1" stop-color="#1a1408"/>
    </linearGradient>
  </defs>
  <rect width="1600" height="1000" fill="url(#kbg)"/>
  <g opacity="0.08" stroke="#ffffff" stroke-width="1">
    <line x1="0" y1="250" x2="1600" y2="250"/>
    <line x1="0" y1="500" x2="1600" y2="500"/>
    <line x1="0" y1="750" x2="1600" y2="750"/>
    <line x1="400" y1="0" x2="400" y2="1000"/>
    <line x1="800" y1="0" x2="800" y2="1000"/>
    <line x1="1200" y1="0" x2="1200" y2="1000"/>
  </g>
  <g opacity="0.25">
    <circle cx="1320" cy="260" r="180" fill="none" stroke="#f5b454" stroke-width="2"/>
    <circle cx="1320" cy="260" r="120" fill="none" stroke="#f5b454" stroke-width="2"/>
    <circle cx="1320" cy="260" r="60" fill="#f5b454"/>
  </g>
  <g transform="translate(110 130)">
    <text x="0" y="0" font-family="ui-monospace, monospace" font-size="22" fill="#f5b454" letter-spacing="10">AGENCIA // DESDE 2024</text>
    <text x="0" y="230" font-family="Georgia, serif" font-weight="700" font-size="220" fill="#fafafa" letter-spacing="-10">Kaleidos</text>
    <text x="0" y="430" font-family="Georgia, serif" font-weight="700" font-size="220" fill="#f5b454" letter-spacing="-10" font-style="italic">Digital.</text>
    <text x="0" y="560" font-family="Georgia, serif" font-size="38" fill="#d4d4d4">Marketing digital para cripto, web3</text>
    <text x="0" y="608" font-family="Georgia, serif" font-size="38" fill="#d4d4d4" font-style="italic">e fintech. Time distribuido, IA no centro.</text>
  </g>
  <g transform="translate(110 870)" opacity="0.9">
    <rect x="0" y="0" width="14" height="14" fill="#f5b454"/>
    <text x="30" y="14" font-family="ui-monospace, monospace" font-size="18" fill="#a3a3a3" letter-spacing="4">KALEIDOS.COM.BR</text>
  </g>
  <rect width="1600" height="1000" fill="#ffffff" filter="url(#kgrain)" opacity="0.04"/>
</svg>
