<svg xmlns="http://www.w3.org/2000/svg" viewBox="0 0 1600 1000" width="1600" height="1000" role="img" aria-label="Rabito cover">
  <defs>
    <filter id="rgrain">
      <feTurbulence type="fractalNoise" baseFrequency="0.9" numOctaves="2" seed="29"/>
      <feColorMatrix type="matrix" values="0 0 0 0 0  0 0 0 0 0  0 0 0 0 0  0 0 0 0.18 0"/>
      <feComposite in2="SourceGraphic" operator="in"/>
    </filter>
    <linearGradient id="rbg" x1="0" y1="0" x2="1" y2="1">
      <stop offset="0" stop-color="#2b0b0b"/>
      <stop offset="1" stop-color="#0a0a0a"/>
    </linearGradient>
  </defs>
  <rect width="1600" height="1000" fill="url(#rbg)"/>
  <g transform="translate(110 150)">
    <text x="0" y="0" font-family="ui-monospace, monospace" font-size="22" fill="#fca5a5" letter-spacing="10">HABIT TRACKER // STREAKS</text>
    <text x="0" y="280" font-family="Georgia, serif" font-weight="700" font-size="340" fill="#fafafa" letter-spacing="-16">Rabito.</text>
    <text x="0" y="420" font-family="Georgia, serif" font-size="38" fill="#fecaca">Consistencia vira jogo.</text>
    <text x="0" y="468" font-family="Georgia, serif" font-size="38" fill="#fecaca" font-style="italic">Voce volta todo dia.</text>
  </g>
  <g transform="translate(110 640)">
    <g opacity="0.92">
      <rect x="0" y="0" width="52" height="52" rx="10" fill="#ef4444"/>
      <rect x="72" y="0" width="52" height="52" rx="10" fill="#ef4444"/>
      <rect x="144" y="0" width="52" height="52" rx="10" fill="#ef4444"/>
      <rect x="216" y="0" width="52" height="52" rx="10" fill="#ef4444"/>
      <rect x="288" y="0" width="52" height="52" rx="10" fill="#ef4444"/>
      <rect x="360" y="0" width="52" height="52" rx="10" fill="#ef4444"/>
      <rect x="432" y="0" width="52" height="52" rx="10" fill="#ef4444"/>
      <rect x="504" y="0" width="52" height="52" rx="10" fill="#ef4444" opacity="0.85"/>
      <rect x="576" y="0" width="52" height="52" rx="10" fill="#ef4444" opacity="0.7"/>
      <rect x="648" y="0" width="52" height="52" rx="10" fill="#ef4444" opacity="0.5"/>
      <rect x="720" y="0" width="52" height="52" rx="10" fill="#3f1111" stroke="#ef4444" stroke-width="2"/>
      <rect x="792" y="0" width="52" height="52" rx="10" fill="#3f1111" stroke="#ef4444" stroke-width="2"/>
    </g>
    <text x="0" y="120" font-family="ui-monospace, monospace" font-size="22" fill="#fca5a5" letter-spacing="4">STREAK 7 DIAS // MOOD 4.2/5</text>
  </g>
  <g transform="translate(110 870)" opacity="0.9">
    <rect x="0" y="0" width="14" height="14" fill="#ef4444"/>
    <text x="30" y="14" font-family="ui-monospace, monospace" font-size="18" fill="#a3a3a3" letter-spacing="4">RABITO.APP</text>
  </g>
  <rect width="1600" height="1000" fill="#ffffff" filter="url(#rgrain)" opacity="0.04"/>
</svg>
